<svg id="main" xmlns="http://www.w3.org/2000/svg" viewBox="0 0 208.39 118.16">
  <defs>
    <style>
      .cls-1 {
        fill: #009ee2;
      }

      .cls-2 {
        fill: #26348b;
      }

      .cls-3 {
        fill: #f8b237;
      }

      .cls-4 {
        fill: #94c23e;
      }

      .cls-5 {
        fill: #26348c;
      }

      .cls-6 {
        fill: #f9ba4d;
      }

      .cls-7 {
        fill: #f2f2f2;
        opacity: 0.23;
      }
    </style>
  </defs>
  <title>ANDT_SVG_version</title>
  <path class="cls-1" d="M122.43,45.4a2.69,2.69,0,0,0-1.13-.18,21.52,21.52,0,0,0-9.14,1.32,6.07,6.07,0,0,0-.7.29,14.93,14.93,0,0,0-3.12,2.2c-.93.73-4.41,5.08-4.81,7.14a44.92,44.92,0,0,0-.73,8.43c-.74-.92-11.56-11.38-13.5-13.45a28.32,28.32,0,0,0-7.5-5.37,28.62,28.62,0,0,0-9.09-.46c0,11.08.07,22.15.05,33.23l-.13,9.15v.44l-.29-.5L49.17,41,18.08,103.48l25.54,0a4.06,4.06,0,0,0,2-.51l1.7-.9.13-.08,2-1.26a18.81,18.81,0,0,0,2.56-2,35.57,35.57,0,0,0,2.77-3.1.11.11,0,0,1,0,0c2.36,4.53,7.75,7.56,11.52,8.2,2.63.45,10.72.49,12.55,0C84.44,102.41,89.43,98,91,94.72c1.15-2.34,1.23-8.18,1.27-10.37.38-.46,1.36.27,1.58.46.63.66,10,9.91,12.63,13a17,17,0,0,0,6.18,4.69,18.72,18.72,0,0,0,8.74,1.35c1-.06,1.44-.24,1.54-1.11,0-.12,0-.25,0-.4v-.61q0-3.1,0-6.21,0-21.32,0-42.63c0-2,0-4.07,0-6.1v-.1C123,45.94,122.8,45.58,122.43,45.4Zm-2.75,5.18q0,3.83,0,7.65,0,16,0,31.94c0,2.55,0,5.09,0,7.64V99c0,1.26-.45,1.55-1.77,1.39a13.26,13.26,0,0,1-8.27-4.31c-.64-.69-1.28-1.37-1.93-2.05-5.78-6.17-11.64-12.29-17.47-18.42-.31-.34-.68-.65-1.39-1.31,0,2.47.12,11.82.11,13.82a12.9,12.9,0,0,1-2.63,7.27,13.7,13.7,0,0,1-5.52,4.1,8.43,8.43,0,0,1-3.23,1A45.71,45.71,0,0,1,66,100.12a10.63,10.63,0,0,1-7.77-5.91c-2.9-6-5.91-11.85-9-18.1L43.65,87.67c2.67,0,5.05.08,7.43,0,1.46-.07,1.72.49,1.55,1.82a12.08,12.08,0,0,1-11.78,11c-5.88.15-11.76,0-18,0L49.21,47.64,74.85,98.93h1.29l-.06-1.14c0-7.91,0-15.83,0-23.76s0-15.77,0-23.65c0-1.45.37-2,1.87-1.78a12.92,12.92,0,0,1,8.26,4.29C91.88,59,97.61,65,103.33,71L106,73.83a9.24,9.24,0,0,0,.82.66c0-4.79,0-9.2,0-13.61A12.21,12.21,0,0,1,117.75,48.6c.79-.06,1.31,0,1.61.33a2.1,2.1,0,0,1,.32,1.36Z" transform="translate(-18.08 -14.97)"/>
  <path class="cls-1" d="M189.94,103.92a47.78,47.78,0,0,1-38.37,19.19A47.15,47.15,0,0,1,113.05,104a17.14,17.14,0,0,0,8.36,1.18c1-.06,1.71-.32,1.81-1.19a39.78,39.78,0,0,0,28.35,11.51A40.72,40.72,0,0,0,189.68,89.1C189.68,92.77,189.94,103.5,189.94,103.92Z" transform="translate(-18.08 -14.97)"/>
  <path class="cls-1" d="M189.42,43.75c-3.58.32-5.5.93-7.83,2.59a40.53,40.53,0,0,0-30-13.24c-11.43,0-21.74,3.75-29.13,11.34a27,27,0,0,0-9.92.88c8.68-12.88,22.34-19.85,39.05-19.85C167.2,25.47,180.59,32.24,189.42,43.75Z" transform="translate(-18.08 -14.97)"/>
  <path class="cls-2" d="M117.93,51.91a3,3,0,0,0-.1-.87c-.22-.76-.82-.73-1.75-.51a10.46,10.46,0,0,0-7.8,10.07c0,5.86,0,11.73,0,18.09-1.69-1.78-3.37-3.54-5-5.29-6.29-6.6-12.4-13-18.47-19.46a11.3,11.3,0,0,0-5-3.23c-2.22-.68-2.29-.64-2.29,1.71V99.14l.76-.2,1.37-.36.22-.07.23-.08.27-.1.29-.11a10.59,10.59,0,0,0,4.86-3.92,8.58,8.58,0,0,0,.66-1.23c.08-.18.16-.36.22-.54a8.6,8.6,0,0,0,.36-1.12c0-.2.09-.4.13-.6a12.83,12.83,0,0,0,.24-2.52c0-5.72,0-11.43,0-17.09.63-.15.81.21,1,.44l18.1,19.08,4.46,4.71a11.57,11.57,0,0,0,5.39,3.3c1.37.41,1.77.14,1.77-1.34v-.72Q117.88,74.27,117.93,51.91Zm0,0a3,3,0,0,0-.1-.87c-.22-.76-.82-.73-1.75-.51a10.46,10.46,0,0,0-7.8,10.07c0,5.86,0,11.73,0,18.09-1.69-1.78-3.37-3.54-5-5.29-6.29-6.6-12.4-13-18.47-19.46a11.3,11.3,0,0,0-5-3.23c-2.22-.68-2.29-.64-2.29,1.71V99.14l.76-.2,1.37-.36.22-.07.23-.08.27-.1.29-.11a10.59,10.59,0,0,0,4.86-3.92,8.58,8.58,0,0,0,.66-1.23c.08-.18.16-.36.22-.54a8.6,8.6,0,0,0,.36-1.12c0-.2.09-.4.13-.6a12.83,12.83,0,0,0,.24-2.52c0-5.72,0-11.43,0-17.09.63-.15.81.21,1,.44l18.1,19.08,4.46,4.71a11.57,11.57,0,0,0,5.39,3.3c1.37.41,1.77.14,1.77-1.34v-.72Q117.88,74.27,117.93,51.91Zm0,0a3,3,0,0,0-.1-.87c-.22-.76-.82-.73-1.75-.51a10.46,10.46,0,0,0-7.8,10.07c0,5.86,0,11.73,0,18.09-1.69-1.78-3.37-3.54-5-5.29-6.29-6.6-12.4-13-18.47-19.46a11.3,11.3,0,0,0-5-3.23c-2.22-.68-2.29-.64-2.29,1.71V99.14l.76-.2,1.37-.36.22-.07.23-.08.27-.1.29-.11a10.59,10.59,0,0,0,4.86-3.92,8.58,8.58,0,0,0,.66-1.23c.08-.18.16-.36.22-.54a8.6,8.6,0,0,0,.36-1.12c0-.2.09-.4.13-.6a12.83,12.83,0,0,0,.24-2.52c0-5.72,0-11.43,0-17.09.63-.15.81.21,1,.44l18.1,19.08,4.46,4.71a11.57,11.57,0,0,0,5.39,3.3c1.37.41,1.77.14,1.77-1.34v-.72Q117.88,74.27,117.93,51.91Zm0,0a3,3,0,0,0-.1-.87c-.22-.76-.82-.73-1.75-.51a10.46,10.46,0,0,0-7.8,10.07c0,5.86,0,11.73,0,18.09-1.69-1.78-3.37-3.54-5-5.29-6.29-6.6-12.4-13-18.47-19.46a11.3,11.3,0,0,0-5-3.23c-2.22-.68-2.29-.64-2.29,1.71V99.14l.76-.2,1.37-.36.22-.07.23-.08.27-.1.29-.11a10.59,10.59,0,0,0,4.86-3.92,8.58,8.58,0,0,0,.66-1.23c.08-.18.16-.36.22-.54a8.6,8.6,0,0,0,.36-1.12c0-.2.09-.4.13-.6a12.83,12.83,0,0,0,.24-2.52c0-5.72,0-11.43,0-17.09.63-.15.81.21,1,.44l18.1,19.08,4.46,4.71a11.57,11.57,0,0,0,5.39,3.3c1.37.41,1.77.14,1.77-1.34v-.72Q117.88,74.27,117.93,51.91Zm0,0a3,3,0,0,0-.1-.87c-.22-.76-.82-.73-1.75-.51a10.46,10.46,0,0,0-7.8,10.07c0,5.86,0,11.73,0,18.09-1.69-1.78-3.37-3.54-5-5.29-6.29-6.6-12.4-13-18.47-19.46a11.3,11.3,0,0,0-5-3.23c-2.22-.68-2.29-.64-2.29,1.71V99.14l.76-.2,1.37-.36.22-.07.23-.08.27-.1.29-.11a10.59,10.59,0,0,0,4.86-3.92,8.58,8.58,0,0,0,.66-1.23c.08-.18.16-.36.22-.54a8.6,8.6,0,0,0,.36-1.12c0-.2.09-.4.13-.6a12.83,12.83,0,0,0,.24-2.52c0-5.72,0-11.43,0-17.09.63-.15.81.21,1,.44l18.1,19.08,4.46,4.71a11.57,11.57,0,0,0,5.39,3.3c1.37.41,1.77.14,1.77-1.34v-.72Q117.88,74.27,117.93,51.91Zm0,0a3,3,0,0,0-.1-.87c-.22-.76-.82-.73-1.75-.51a10.46,10.46,0,0,0-7.8,10.07c0,5.86,0,11.73,0,18.09-1.69-1.78-3.37-3.54-5-5.29-6.29-6.6-12.4-13-18.47-19.46a11.3,11.3,0,0,0-5-3.23c-2.22-.68-2.29-.64-2.29,1.71V99.14l.76-.2,1.37-.36.22-.07.23-.08.27-.1.29-.11a10.59,10.59,0,0,0,4.86-3.92,8.58,8.58,0,0,0,.66-1.23c.08-.18.16-.36.22-.54a8.6,8.6,0,0,0,.36-1.12c0-.2.09-.4.13-.6a12.83,12.83,0,0,0,.24-2.52c0-5.72,0-11.43,0-17.09.63-.15.81.21,1,.44l18.1,19.08,4.46,4.71a11.57,11.57,0,0,0,5.39,3.3c1.37.41,1.77.14,1.77-1.34v-.72Q117.88,74.27,117.93,51.91Zm0,0a3,3,0,0,0-.1-.87c-.22-.76-.82-.73-1.75-.51a10.46,10.46,0,0,0-7.8,10.07c0,5.86,0,11.73,0,18.09-1.69-1.78-3.37-3.54-5-5.29-6.29-6.6-12.4-13-18.47-19.46a11.3,11.3,0,0,0-5-3.23c-2.22-.68-2.29-.64-2.29,1.71V99.14l.76-.2,1.37-.36.22-.07.23-.08.27-.1.29-.11a10.59,10.59,0,0,0,4.86-3.92,8.58,8.58,0,0,0,.66-1.23c.08-.18.16-.36.22-.54a8.6,8.6,0,0,0,.36-1.12c0-.2.09-.4.13-.6a12.83,12.83,0,0,0,.24-2.52c0-5.72,0-11.43,0-17.09.63-.15.81.21,1,.44l18.1,19.08,4.46,4.71a11.57,11.57,0,0,0,5.39,3.3c1.37.41,1.77.14,1.77-1.34v-.72Q117.88,74.27,117.93,51.91Zm0,0a3,3,0,0,0-.1-.87c-.22-.76-.82-.73-1.75-.51a10.46,10.46,0,0,0-7.8,10.07c0,5.86,0,11.73,0,18.09-1.69-1.78-3.37-3.54-5-5.29-6.29-6.6-12.4-13-18.47-19.46a11.3,11.3,0,0,0-5-3.23c-2.22-.68-2.29-.64-2.29,1.71V99.14l.76-.2,1.37-.36.22-.07.23-.08.27-.1.29-.11a10.59,10.59,0,0,0,4.86-3.92,8.58,8.58,0,0,0,.66-1.23c.08-.18.16-.36.22-.54a8.6,8.6,0,0,0,.36-1.12c0-.2.09-.4.13-.6a12.83,12.83,0,0,0,.24-2.52c0-5.72,0-11.43,0-17.09.63-.15.81.21,1,.44l18.1,19.08,4.46,4.71a11.57,11.57,0,0,0,5.39,3.3c1.37.41,1.77.14,1.77-1.34v-.72Q117.88,74.27,117.93,51.91Zm0,0a3,3,0,0,0-.1-.87c-.22-.76-.82-.73-1.75-.51a10.46,10.46,0,0,0-7.8,10.07c0,5.86,0,11.73,0,18.09-1.69-1.78-3.37-3.54-5-5.29-6.29-6.6-12.4-13-18.47-19.46a11.3,11.3,0,0,0-5-3.23c-2.22-.68-2.29-.64-2.29,1.71V99.14l.76-.2,1.37-.36.22-.07.23-.08.27-.1.29-.11a10.59,10.59,0,0,0,4.86-3.92,8.58,8.58,0,0,0,.66-1.23c.08-.18.16-.36.22-.54a8.6,8.6,0,0,0,.36-1.12c0-.2.09-.4.13-.6a12.83,12.83,0,0,0,.24-2.52c0-5.72,0-11.43,0-17.09.63-.15.81.21,1,.44l18.1,19.08,4.46,4.71a11.57,11.57,0,0,0,5.39,3.3c1.37.41,1.77.14,1.77-1.34v-.72Q117.88,74.27,117.93,51.91Zm0,0a3,3,0,0,0-.1-.87c-.22-.76-.82-.73-1.75-.51a10.46,10.46,0,0,0-7.8,10.07c0,5.86,0,11.73,0,18.09-1.69-1.78-3.37-3.54-5-5.29-6.29-6.6-12.4-13-18.47-19.46a11.3,11.3,0,0,0-5-3.23c-2.22-.68-2.29-.64-2.29,1.71V99.14l.76-.2,1.37-.36.22-.07.23-.08.27-.1.29-.11a10.59,10.59,0,0,0,4.86-3.92,8.58,8.58,0,0,0,.66-1.23c.08-.18.16-.36.22-.54a8.6,8.6,0,0,0,.36-1.12c0-.2.09-.4.13-.6a12.83,12.83,0,0,0,.24-2.52c0-5.72,0-11.43,0-17.09.63-.15.81.21,1,.44l18.1,19.08,4.46,4.71a11.57,11.57,0,0,0,5.39,3.3c1.37.41,1.77.14,1.77-1.34v-.72Q117.88,74.27,117.93,51.91Zm0,0a3,3,0,0,0-.1-.87c-.22-.76-.82-.73-1.75-.51a10.46,10.46,0,0,0-7.8,10.07c0,5.86,0,11.73,0,18.09-1.69-1.78-3.37-3.54-5-5.29-6.29-6.6-12.4-13-18.47-19.46a11.3,11.3,0,0,0-5-3.23c-2.22-.68-2.29-.64-2.29,1.71V99.14l.76-.2,1.37-.36.22-.07.23-.08.27-.1.29-.11a10.59,10.59,0,0,0,4.86-3.92,8.58,8.58,0,0,0,.66-1.23c.08-.18.16-.36.22-.54a8.6,8.6,0,0,0,.36-1.12c0-.2.09-.4.13-.6a12.83,12.83,0,0,0,.24-2.52c0-5.72,0-11.43,0-17.09.63-.15.81.21,1,.44l18.1,19.08,4.46,4.71a11.57,11.57,0,0,0,5.39,3.3c1.37.41,1.77.14,1.77-1.34v-.72Q117.88,74.27,117.93,51.91Zm0,0a3,3,0,0,0-.1-.87c-.22-.76-.82-.73-1.75-.51a10.46,10.46,0,0,0-7.8,10.07c0,5.86,0,11.73,0,18.09-1.69-1.78-3.37-3.54-5-5.29-6.29-6.6-12.4-13-18.47-19.46a11.3,11.3,0,0,0-5-3.23c-2.22-.68-2.29-.64-2.29,1.71V99.14l.76-.2,1.37-.36.22-.07.23-.08.27-.1.29-.11a10.59,10.59,0,0,0,4.86-3.92,8.58,8.58,0,0,0,.66-1.23c.08-.18.16-.36.22-.54a8.6,8.6,0,0,0,.36-1.12c0-.2.09-.4.13-.6a12.83,12.83,0,0,0,.24-2.52c0-5.72,0-11.43,0-17.09.63-.15.81.21,1,.44l18.1,19.08,4.46,4.71a11.57,11.57,0,0,0,5.39,3.3c1.37.41,1.77.14,1.77-1.34v-.72Q117.88,74.27,117.93,51.91Zm0,0a3,3,0,0,0-.1-.87c-.22-.76-.82-.73-1.75-.51a10.46,10.46,0,0,0-7.8,10.07c0,5.86,0,11.73,0,18.09-1.69-1.78-3.37-3.54-5-5.29-6.29-6.6-12.4-13-18.47-19.46a11.3,11.3,0,0,0-5-3.23c-2.22-.68-2.29-.64-2.29,1.71V99.14l.76-.2,1.37-.36.22-.07.23-.08.27-.1.29-.11a10.59,10.59,0,0,0,4.86-3.92,8.58,8.58,0,0,0,.66-1.23c.08-.18.16-.36.22-.54a8.6,8.6,0,0,0,.36-1.12c0-.2.09-.4.13-.6a12.83,12.83,0,0,0,.24-2.52c0-5.72,0-11.43,0-17.09.63-.15.81.21,1,.44l18.1,19.08,4.46,4.71a11.57,11.57,0,0,0,5.39,3.3c1.37.41,1.77.14,1.77-1.34v-.72Q117.88,74.27,117.93,51.91Zm0,0a3,3,0,0,0-.1-.87c-.22-.76-.82-.73-1.75-.51a10.46,10.46,0,0,0-7.8,10.07c0,5.86,0,11.73,0,18.09-1.69-1.78-3.37-3.54-5-5.29-6.29-6.6-12.4-13-18.47-19.46a11.3,11.3,0,0,0-5-3.23c-2.22-.68-2.29-.64-2.29,1.71V99.14l.76-.2,1.37-.36.22-.07.23-.08.27-.1.29-.11a10.59,10.59,0,0,0,4.86-3.92,8.58,8.58,0,0,0,.66-1.23c.08-.18.16-.36.22-.54a8.6,8.6,0,0,0,.36-1.12c0-.2.09-.4.13-.6a12.83,12.83,0,0,0,.24-2.52c0-5.72,0-11.43,0-17.09.63-.15.81.21,1,.44l18.1,19.08,4.46,4.71a11.57,11.57,0,0,0,5.39,3.3c1.37.41,1.77.14,1.77-1.34v-.72Q117.88,74.27,117.93,51.91Zm0,0a3,3,0,0,0-.1-.87c-.22-.76-.82-.73-1.75-.51a10.46,10.46,0,0,0-7.8,10.07c0,5.86,0,11.73,0,18.09-1.69-1.78-3.37-3.54-5-5.29-6.29-6.6-12.4-13-18.47-19.46a11.3,11.3,0,0,0-5-3.23c-2.22-.68-2.29-.64-2.29,1.71V99.14l.76-.2,1.37-.36.22-.07.23-.08.27-.1.29-.11a10.59,10.59,0,0,0,4.86-3.92,8.58,8.58,0,0,0,.66-1.23c.08-.18.16-.36.22-.54a8.6,8.6,0,0,0,.36-1.12c0-.2.09-.4.13-.6a12.83,12.83,0,0,0,.24-2.52c0-5.72,0-11.43,0-17.09.63-.15.81.21,1,.44l18.1,19.08,4.46,4.71a11.57,11.57,0,0,0,5.39,3.3c1.37.41,1.77.14,1.77-1.34v-.72Q117.88,74.27,117.93,51.91Zm0,0a3,3,0,0,0-.1-.87c-.22-.76-.82-.73-1.75-.51a10.46,10.46,0,0,0-7.8,10.07c0,5.86,0,11.73,0,18.09-1.69-1.78-3.37-3.54-5-5.29-6.29-6.6-12.4-13-18.47-19.46a11.3,11.3,0,0,0-5-3.23c-2.22-.68-2.29-.64-2.29,1.71V99.14l.76-.2,1.37-.36.22-.07.23-.08.27-.1.29-.11a10.59,10.59,0,0,0,4.86-3.92,8.58,8.58,0,0,0,.66-1.23c.08-.18.16-.36.22-.54a8.6,8.6,0,0,0,.36-1.12c0-.2.09-.4.13-.6a12.83,12.83,0,0,0,.24-2.52c0-5.72,0-11.43,0-17.09.63-.15.81.21,1,.44l18.1,19.08,4.46,4.71a11.57,11.57,0,0,0,5.39,3.3c1.37.41,1.77.14,1.77-1.34v-.72Q117.88,74.27,117.93,51.91Zm0,0a3,3,0,0,0-.1-.87c-.22-.76-.82-.73-1.75-.51a10.46,10.46,0,0,0-7.8,10.07c0,5.86,0,11.73,0,18.09-1.69-1.78-3.37-3.54-5-5.29-6.29-6.6-12.4-13-18.47-19.46a11.3,11.3,0,0,0-5-3.23c-2.22-.68-2.29-.64-2.29,1.71V99.14l.76-.2,1.37-.36.22-.07.23-.08.27-.1.29-.11a10.59,10.59,0,0,0,4.86-3.92,8.58,8.58,0,0,0,.66-1.23c.08-.18.16-.36.22-.54a8.6,8.6,0,0,0,.36-1.12c0-.2.09-.4.13-.6a12.83,12.83,0,0,0,.24-2.52c0-5.72,0-11.43,0-17.09.63-.15.81.21,1,.44l18.1,19.08,4.46,4.71a11.57,11.57,0,0,0,5.39,3.3c1.37.41,1.77.14,1.77-1.34v-.72Q117.88,74.27,117.93,51.91Zm0,0a3,3,0,0,0-.1-.87c-.22-.76-.82-.73-1.75-.51a10.46,10.46,0,0,0-7.8,10.07c0,5.86,0,11.73,0,18.09-1.69-1.78-3.37-3.54-5-5.29-6.29-6.6-12.4-13-18.47-19.46a11.3,11.3,0,0,0-5-3.23c-2.22-.68-2.29-.64-2.29,1.71V99.14l.76-.2,1.37-.36.22-.07.23-.08.27-.1.29-.11a10.59,10.59,0,0,0,4.86-3.92,8.58,8.58,0,0,0,.66-1.23c.08-.18.16-.36.22-.54a8.6,8.6,0,0,0,.36-1.12c0-.2.09-.4.13-.6a12.83,12.83,0,0,0,.24-2.52c0-5.72,0-11.43,0-17.09.63-.15.81.21,1,.44l18.1,19.08,4.46,4.71a11.57,11.57,0,0,0,5.39,3.3c1.37.41,1.77.14,1.77-1.34v-.72Q117.88,74.27,117.93,51.91Zm0,0a3,3,0,0,0-.1-.87c-.22-.76-.82-.73-1.75-.51a10.46,10.46,0,0,0-7.8,10.07c0,5.86,0,11.73,0,18.09-1.69-1.78-3.37-3.54-5-5.29-6.29-6.6-12.4-13-18.47-19.46a11.3,11.3,0,0,0-5-3.23c-2.22-.68-2.29-.64-2.29,1.71V99.14l.76-.2,1.37-.36.22-.07.23-.08.27-.1.29-.11a10.59,10.59,0,0,0,4.86-3.92,8.58,8.58,0,0,0,.66-1.23c.08-.18.16-.36.22-.54a8.6,8.6,0,0,0,.36-1.12c0-.2.09-.4.13-.6a12.83,12.83,0,0,0,.24-2.52c0-5.72,0-11.43,0-17.09.63-.15.81.21,1,.44l18.1,19.08,4.46,4.71a11.57,11.57,0,0,0,5.39,3.3c1.37.41,1.77.14,1.77-1.34v-.72Q117.88,74.27,117.93,51.91Zm0,0a3,3,0,0,0-.1-.87c-.22-.76-.82-.73-1.75-.51a10.46,10.46,0,0,0-7.8,10.07c0,5.86,0,11.73,0,18.09-1.69-1.78-3.37-3.54-5-5.29-6.29-6.6-12.4-13-18.47-19.46a11.3,11.3,0,0,0-5-3.23c-2.22-.68-2.29-.64-2.29,1.71V99.14l.76-.2,1.37-.36.22-.07.23-.08.27-.1.29-.11a10.59,10.59,0,0,0,4.86-3.92,8.58,8.58,0,0,0,.66-1.23c.08-.18.16-.36.22-.54a8.6,8.6,0,0,0,.36-1.12c0-.2.09-.4.13-.6a12.83,12.83,0,0,0,.24-2.52c0-5.72,0-11.43,0-17.09.63-.15.81.21,1,.44l18.1,19.08,4.46,4.71a11.57,11.57,0,0,0,5.39,3.3c1.37.41,1.77.14,1.77-1.34v-.72Q117.88,74.27,117.93,51.91Zm0,0a3,3,0,0,0-.1-.87c-.22-.76-.82-.73-1.75-.51a10.46,10.46,0,0,0-7.8,10.07c0,5.86,0,11.73,0,18.09-1.69-1.78-3.37-3.54-5-5.29-6.29-6.6-12.4-13-18.47-19.46a11.3,11.3,0,0,0-5-3.23c-2.22-.68-2.29-.64-2.29,1.71V99.14l.76-.2,1.37-.36.22-.07.23-.08.27-.1.29-.11a10.59,10.59,0,0,0,4.86-3.92,8.58,8.58,0,0,0,.66-1.23c.08-.18.16-.36.22-.54a8.6,8.6,0,0,0,.36-1.12c0-.2.09-.4.13-.6a12.83,12.83,0,0,0,.24-2.52c0-5.72,0-11.43,0-17.09.63-.15.81.21,1,.44l18.1,19.08,4.46,4.71a11.57,11.57,0,0,0,5.39,3.3c1.37.41,1.77.14,1.77-1.34v-.72Q117.88,74.27,117.93,51.91Zm0,0a3,3,0,0,0-.1-.87c-.22-.76-.82-.73-1.75-.51a10.46,10.46,0,0,0-7.8,10.07c0,5.86,0,11.73,0,18.09-1.69-1.78-3.37-3.54-5-5.29-6.29-6.6-12.4-13-18.47-19.46a11.3,11.3,0,0,0-5-3.23c-2.22-.68-2.29-.64-2.29,1.71V99.14l.76-.2,1.37-.36.22-.07.23-.08.27-.1.29-.11a10.59,10.59,0,0,0,4.86-3.92,8.58,8.58,0,0,0,.66-1.23c.08-.18.16-.36.22-.54a8.6,8.6,0,0,0,.36-1.12c0-.2.09-.4.13-.6a12.83,12.83,0,0,0,.24-2.52c0-5.72,0-11.43,0-17.09.63-.15.81.21,1,.44l18.1,19.08,4.46,4.71a11.57,11.57,0,0,0,5.39,3.3c1.37.41,1.77.14,1.77-1.34v-.72Q117.88,74.27,117.93,51.91Zm0,0a3,3,0,0,0-.1-.87c-.22-.76-.82-.73-1.75-.51a10.46,10.46,0,0,0-7.8,10.07c0,5.86,0,11.73,0,18.09-1.69-1.78-3.37-3.54-5-5.29-6.29-6.6-12.4-13-18.47-19.46a11.3,11.3,0,0,0-5-3.23c-2.22-.68-2.29-.64-2.29,1.71V99.14l.76-.2,1.37-.36.22-.07.23-.08.27-.1.29-.11a10.59,10.59,0,0,0,4.86-3.92,8.58,8.58,0,0,0,.66-1.23c.08-.18.16-.36.22-.54a8.6,8.6,0,0,0,.36-1.12c0-.2.09-.4.13-.6a12.83,12.83,0,0,0,.24-2.52c0-5.72,0-11.43,0-17.09.63-.15.81.21,1,.44l18.1,19.08,4.46,4.71a11.57,11.57,0,0,0,5.39,3.3c1.37.41,1.77.14,1.77-1.34v-.72Q117.88,74.27,117.93,51.91Zm0,0a3,3,0,0,0-.1-.87c-.22-.76-.82-.73-1.75-.51a10.46,10.46,0,0,0-7.8,10.07c0,5.86,0,11.73,0,18.09-1.69-1.78-3.37-3.54-5-5.29-6.29-6.6-12.4-13-18.47-19.46a11.3,11.3,0,0,0-5-3.23c-2.22-.68-2.29-.64-2.29,1.71V99.14l.76-.2,1.37-.36.22-.07.23-.08.27-.1.29-.11a10.59,10.59,0,0,0,4.86-3.92,8.58,8.58,0,0,0,.66-1.23c.08-.18.16-.36.22-.54a8.6,8.6,0,0,0,.36-1.12c0-.2.09-.4.13-.6a12.83,12.83,0,0,0,.24-2.52c0-5.72,0-11.43,0-17.09.63-.15.81.21,1,.44l18.1,19.08,4.46,4.71a11.57,11.57,0,0,0,5.39,3.3c1.37.41,1.77.14,1.77-1.34v-.72Q117.88,74.27,117.93,51.91Zm0,0a3,3,0,0,0-.1-.87c-.22-.76-.82-.73-1.75-.51a10.46,10.46,0,0,0-7.8,10.07c0,5.86,0,11.73,0,18.09-1.69-1.78-3.37-3.54-5-5.29-6.29-6.6-12.4-13-18.47-19.46a11.3,11.3,0,0,0-5-3.23c-2.22-.68-2.29-.64-2.29,1.71V99.14l.76-.2,1.37-.36.22-.07.23-.08.27-.1.29-.11a10.59,10.59,0,0,0,4.86-3.92,8.58,8.58,0,0,0,.66-1.23c.08-.18.16-.36.22-.54a8.6,8.6,0,0,0,.36-1.12c0-.2.09-.4.13-.6a12.83,12.83,0,0,0,.24-2.52c0-5.72,0-11.43,0-17.09.63-.15.81.21,1,.44l18.1,19.08,4.46,4.71a11.57,11.57,0,0,0,5.39,3.3c1.37.41,1.77.14,1.77-1.34v-.72Q117.88,74.27,117.93,51.91Zm0,0a3,3,0,0,0-.1-.87c-.22-.76-.82-.73-1.75-.51a10.46,10.46,0,0,0-7.8,10.07c0,5.86,0,11.73,0,18.09-1.69-1.78-3.37-3.54-5-5.29-6.29-6.6-12.4-13-18.47-19.46a11.3,11.3,0,0,0-5-3.23c-2.22-.68-2.29-.64-2.29,1.71V99.14l.76-.2,1.37-.36.22-.07.23-.08.27-.1.29-.11a10.59,10.59,0,0,0,4.86-3.92,8.58,8.58,0,0,0,.66-1.23c.08-.18.16-.36.22-.54a8.6,8.6,0,0,0,.36-1.12c0-.2.09-.4.13-.6a12.83,12.83,0,0,0,.24-2.52c0-5.72,0-11.43,0-17.09.63-.15.81.21,1,.44l18.1,19.08,4.46,4.71a11.57,11.57,0,0,0,5.39,3.3c1.37.41,1.77.14,1.77-1.34v-.72Q117.88,74.27,117.93,51.91Zm0,0a3,3,0,0,0-.1-.87c-.22-.76-.82-.73-1.75-.51a10.46,10.46,0,0,0-7.8,10.07c0,5.86,0,11.73,0,18.09-1.69-1.78-3.37-3.54-5-5.29-6.29-6.6-12.4-13-18.47-19.46a11.3,11.3,0,0,0-5-3.23c-2.22-.68-2.29-.64-2.29,1.71V99.14l.76-.2,1.37-.36.22-.07.23-.08.27-.1.29-.11a10.59,10.59,0,0,0,4.86-3.92,8.58,8.58,0,0,0,.66-1.23c.08-.18.16-.36.22-.54a8.6,8.6,0,0,0,.36-1.12c0-.2.09-.4.13-.6a12.83,12.83,0,0,0,.24-2.52c0-5.72,0-11.43,0-17.09.63-.15.81.21,1,.44l18.1,19.08,4.46,4.71a11.57,11.57,0,0,0,5.39,3.3c1.37.41,1.77.14,1.77-1.34v-.72Q117.88,74.27,117.93,51.91Zm0,0a3,3,0,0,0-.1-.87c-.22-.76-.82-.73-1.75-.51a10.46,10.46,0,0,0-7.8,10.07c0,5.86,0,11.73,0,18.09-1.69-1.78-3.37-3.54-5-5.29-6.29-6.6-12.4-13-18.47-19.46a11.3,11.3,0,0,0-5-3.23c-2.22-.68-2.29-.64-2.29,1.71V99.14l.76-.2,1.37-.36.22-.07.23-.08.27-.1.29-.11a10.59,10.59,0,0,0,4.86-3.92,8.58,8.58,0,0,0,.66-1.23c.08-.18.16-.36.22-.54a8.6,8.6,0,0,0,.36-1.12c0-.2.09-.4.13-.6a12.83,12.83,0,0,0,.24-2.52c0-5.72,0-11.43,0-17.09.63-.15.81.21,1,.44l18.1,19.08,4.46,4.71a11.57,11.57,0,0,0,5.39,3.3c1.37.41,1.77.14,1.77-1.34v-.72Q117.88,74.27,117.93,51.91Zm0,0a3,3,0,0,0-.1-.87c-.22-.76-.82-.73-1.75-.51a10.46,10.46,0,0,0-7.8,10.07c0,5.86,0,11.73,0,18.09-1.69-1.78-3.37-3.54-5-5.29-6.29-6.6-12.4-13-18.47-19.46a11.3,11.3,0,0,0-5-3.23c-2.22-.68-2.29-.64-2.29,1.71V99.14l.76-.2c.44-.1.81-.18,1.37-.36l.22-.07.23-.08.27-.1.29-.11a9.61,9.61,0,0,0,4.86-3.92,8.58,8.58,0,0,0,.66-1.23c.08-.18.16-.36.22-.54.14-.37.25-.74.36-1.12,0-.2.09-.4.13-.6a12.83,12.83,0,0,0,.24-2.52c0-5.72,0-11.43,0-17.09.63-.15.81.21,1,.44l18.1,19.08,4.46,4.71a11.57,11.57,0,0,0,5.39,3.3c1.37.41,1.77.14,1.77-1.34v-.72Q117.88,74.27,117.93,51.91Z" transform="translate(-18.08 -14.97)"/>
  <path class="cls-2" d="M25.6,98.86,49.54,51c8,16.05,16,32.17,24,48.17a23.46,23.46,0,0,1-7.7-.7,9,9,0,0,1-5.91-4.81c-3.37-6.89-6.81-13.74-10.4-21l-3.27,6.78c-1.32,2.74-2.61,5.49-4,8.2-.6,1.18-.61,1.73,1,1.66,2.14-.1,4.3.07,6.44-.06,1.68-.1,1.77.54,1.38,1.92-1.16,4.14-4.57,7.42-8.86,7.63C36.78,99.06,31.32,98.86,25.6,98.86Z" transform="translate(-18.08 -14.97)"/>
  <g>
    <path class="cls-3" d="M102.85,51.82l-5.27-2.54a.58.58,0,0,0-.77.28c-.67,1.52-1.28,3.08-1.83,4.66a.58.58,0,0,0,.38.73l5.6,1.73a.55.55,0,0,0,.69-.36c.44-1.28.93-2.53,1.47-3.77A.56.56,0,0,0,102.85,51.82Z" transform="translate(-18.08 -14.97)"/>
    <path class="cls-3" d="M111.09,38.94,106.84,35a.57.57,0,0,0-.82,0c-1.13,1.3-2.2,2.66-3.21,4.06a.58.58,0,0,0,.14.81l4.82,3.24a.56.56,0,0,0,.77-.14c.82-1.14,1.68-2.25,2.59-3.32A.55.55,0,0,0,111.09,38.94Z" transform="translate(-18.08 -14.97)"/>
    <path class="cls-3" d="M106.36,45.28,101.54,42a.58.58,0,0,0-.81.17q-1.23,1.95-2.3,4a.57.57,0,0,0,.26.78l5.25,2.54a.57.57,0,0,0,.75-.25c.57-1.1,1.18-2.18,1.84-3.24A.57.57,0,0,0,106.36,45.28Z" transform="translate(-18.08 -14.97)"/>
    <path class="cls-3" d="M121.48,29.76l-3-4.83a.57.57,0,0,0-.8-.17q-2.17,1.44-4.2,3.08a.59.59,0,0,0-.08.82L117.13,33a.55.55,0,0,0,.78.06c1.1-.89,2.23-1.75,3.4-2.55A.57.57,0,0,0,121.48,29.76Z" transform="translate(-18.08 -14.97)"/>
    <path class="cls-3" d="M165.42,17q-2.47-.69-5-1.15a.57.57,0,0,0-.67.48l-.78,5.3a.55.55,0,0,0,.46.63c1.41.25,2.81.55,4.18.91a.54.54,0,0,0,.67-.37l1.57-5.09A.56.56,0,0,0,165.42,17Z" transform="translate(-18.08 -14.97)"/>
    <path class="cls-3" d="M156.7,15.32c-1.54-.17-3.1-.29-4.67-.34a.57.57,0,0,0-.59.57l0,5.42a.55.55,0,0,0,.55.56c1.29,0,2.57.12,3.83.25a.56.56,0,0,0,.61-.48L157.2,16A.59.59,0,0,0,156.7,15.32Z" transform="translate(-18.08 -14.97)"/>
    <path class="cls-3" d="M173.44,19.85c-1.4-.62-2.83-1.18-4.29-1.69a.77.77,0,0,0-1,.49l-1.45,4.7a.75.75,0,0,0,.48.93c1.2.41,2.37.86,3.53,1.35a.74.74,0,0,0,1-.36l2.12-4.39A.76.76,0,0,0,173.44,19.85Z" transform="translate(-18.08 -14.97)"/>
    <path class="cls-3" d="M180.93,23.83Q179,22.62,177,21.56a.63.63,0,0,0-.85.28l-2.22,4.61a.62.62,0,0,0,.27.82c1.11.57,2.19,1.18,3.25,1.83a.61.61,0,0,0,.84-.18l2.84-4.21A.63.63,0,0,0,180.93,23.83Z" transform="translate(-18.08 -14.97)"/>
    <path class="cls-3" d="M187.69,29l-3.58-3a.65.65,0,0,0-1,.14l-2.76,4.09a.64.64,0,0,0,.17.88c1.11.8,2.19,1.65,3.23,2.53a.65.65,0,0,0,.92-.07l3.07-3.69A.65.65,0,0,0,187.69,29Z" transform="translate(-18.08 -14.97)"/>
    <path class="cls-3" d="M135.2,23.23l-1.45-5.37a.58.58,0,0,0-.72-.4c-1.5.46-3,1-4.42,1.54a.57.57,0,0,0-.31.76l2.22,5.15a.57.57,0,0,0,.73.3c1.17-.48,2.36-.91,3.58-1.29A.56.56,0,0,0,135.2,23.23Z" transform="translate(-18.08 -14.97)"/>
    <path class="cls-3" d="M128.25,25.92,126,20.75a.56.56,0,0,0-.76-.29q-2.31,1.08-4.5,2.35a.58.58,0,0,0-.19.8l3,4.81a.56.56,0,0,0,.77.18c1.18-.7,2.4-1.34,3.65-2A.56.56,0,0,0,128.25,25.92Z" transform="translate(-18.08 -14.97)"/>
    <path class="cls-3" d="M148.37,15q-1.53,0-3,.15a.58.58,0,0,0-.52.64l.6,5.44a.56.56,0,0,0,.61.49c.78-.06,1.57-.11,2.37-.14a.55.55,0,0,0,.54-.55l0-5.46A.57.57,0,0,0,148.37,15Z" transform="translate(-18.08 -14.97)"/>
    <path class="cls-3" d="M142.35,16a.58.58,0,0,0-.65-.51q-2.61.38-5.14,1a.56.56,0,0,0-.41.7l1.44,5.36a.56.56,0,0,0,.67.39c1.39-.33,2.8-.61,4.22-.83a.57.57,0,0,0,.48-.62Z" transform="translate(-18.08 -14.97)"/>
    <path class="cls-3" d="M193,33.9c-.56-.62-1.81-1.86-2.35-2.39a.36.36,0,0,0-.51,0l-3.75,4.07a.35.35,0,0,0,0,.49c.63.61,1.26,1.25,1.86,1.9a.36.36,0,0,0,.49,0l4.2-3.6A.35.35,0,0,0,193,33.9Z" transform="translate(-18.08 -14.97)"/>
    <path class="cls-3" d="M115.26,34.65l-3.75-4.37a.56.56,0,0,0-.81-.05c-.75.68-1.46,1.39-2.17,2.11a.57.57,0,0,0,0,.81l4.24,3.91a.55.55,0,0,0,.78,0q.81-.82,1.65-1.62A.55.55,0,0,0,115.26,34.65Z" transform="translate(-18.08 -14.97)"/>
    <path class="cls-3" d="M199,41.25c-.9-1.4-1.85-2.77-2.88-4.1a.83.83,0,0,0-1.19-.13L191.36,40c-.51.42-.34,1.05.09,1.65s.91,1.35,1.38,2c.24.33,2,.19,2.69.11a1.37,1.37,0,0,0,.56-.18l2.76-1.61A.46.46,0,0,0,199,41.25Z" transform="translate(-18.08 -14.97)"/>
  </g>
  <g>
    <path class="cls-4" d="M101.16,93c-.28-.29-.6-.62-1.09-1.07l-.67-.58A1.71,1.71,0,0,0,97.85,91l-1.33.38a1.67,1.67,0,0,0-1.14,2.12c.25.76.52,1.5.81,2.24a1.66,1.66,0,0,0,2.23.91l2.21-1A1.66,1.66,0,0,0,101.16,93Z" transform="translate(-18.08 -14.97)"/>
    <path class="cls-4" d="M93.28,85.33s.41,2.13.58,2.87a1.3,1.3,0,0,0,1.62.94l1.15-.38A41.77,41.77,0,0,0,93.28,85.33Z" transform="translate(-18.08 -14.97)"/>
    <path class="cls-4" d="M105.94,100.22c-.39-.7-.77-1.41-1.13-2.13a1.45,1.45,0,0,0-1.89-.69l-3.7,1.65a1.46,1.46,0,0,0-.72,2c.48,1,1,1.91,1.52,2.84a1.46,1.46,0,0,0,2,.49l3.4-2.19A1.45,1.45,0,0,0,105.94,100.22Z" transform="translate(-18.08 -14.97)"/>
    <path class="cls-4" d="M192.22,114.06l-3.16-2.84a1,1,0,0,0-1.36,0c-.38.39-.77.77-1.17,1.15a1,1,0,0,0-.06,1.37l2.82,3.19a1,1,0,0,0,1.43.06q.79-.77,1.56-1.56A1,1,0,0,0,192.22,114.06Z" transform="translate(-18.08 -14.97)"/>
    <path class="cls-4" d="M134.23,123.82c-1.21-.41-2.39-.87-3.55-1.36a.74.74,0,0,0-1,.36l-2.2,4.76a.74.74,0,0,0,.38,1c1.43.61,2.9,1.16,4.38,1.65a.75.75,0,0,0,.95-.5l1.47-5A.74.74,0,0,0,134.23,123.82Z" transform="translate(-18.08 -14.97)"/>
    <path class="cls-4" d="M149.91,127.53a1,1,0,0,0-.95-1c-1,0-2-.1-3-.2a1,1,0,0,0-1.07.85l-.73,5.45h0l0,.15c1.59.17,3.2.28,4.82.32a1,1,0,0,0,1-1Z" transform="translate(-18.08 -14.97)"/>
    <path class="cls-4" d="M197.68,107.26,194.16,105a1,1,0,0,0-1.33.25c-.69,1-1.41,1.88-2.16,2.77a1,1,0,0,0,.1,1.37l3.14,2.81a1,1,0,0,0,1.43-.1q1.36-1.65,2.61-3.4A1,1,0,0,0,197.68,107.26Z" transform="translate(-18.08 -14.97)"/>
    <path class="cls-4" d="M141.61,125.75c-1.14-.21-2.26-.45-3.37-.73a1,1,0,0,0-1.19.67l-1.57,5.38h0l0,.09c1.72.47,3.46.85,5.24,1.16a1,1,0,0,0,1.14-.85l.61-4.62A1,1,0,0,0,141.61,125.75Z" transform="translate(-18.08 -14.97)"/>
    <path class="cls-4" d="M127.13,120.77c-1-.53-2-1.09-3-1.69a.73.73,0,0,0-1,.23l-2.9,4.44a.75.75,0,0,0,.24,1c1.22.74,2.47,1.44,3.75,2.08a.74.74,0,0,0,1-.35l2.22-4.79A.73.73,0,0,0,127.13,120.77Z" transform="translate(-18.08 -14.97)"/>
    <path class="cls-4" d="M120.76,116.83c-1-.71-2-1.46-2.89-2.24a.85.85,0,0,0-1.19.08l-3.41,3.81a.87.87,0,0,0,.09,1.25c1.17,1,2.37,1.89,3.62,2.77a.88.88,0,0,0,1.23-.24L121,118A.85.85,0,0,0,120.76,116.83Z" transform="translate(-18.08 -14.97)"/>
    <path class="cls-4" d="M172.73,127.64l-1.81-4a1,1,0,0,0-1.25-.51c-.95.36-1.9.7-2.88,1a1,1,0,0,0-.65,1.21l1.22,4.26a1,1,0,0,0,1.26.68c1.21-.4,2.41-.83,3.58-1.31A1,1,0,0,0,172.73,127.64Z" transform="translate(-18.08 -14.97)"/>
    <path class="cls-4" d="M180.34,123.72,178,120.08a1,1,0,0,0-1.32-.31q-1.47.84-3,1.59a1,1,0,0,0-.47,1.28l2.21,4.92h0c1.58-.75,3.11-1.59,4.61-2.47A1,1,0,0,0,180.34,123.72Z" transform="translate(-18.08 -14.97)"/>
    <path class="cls-4" d="M187.43,118.62l-2.84-3.21a1,1,0,0,0-1.36-.11c-.93.74-1.88,1.45-2.86,2.13a1,1,0,0,0-.27,1.35l2.32,3.61a1,1,0,0,0,1.4.28c1.2-.84,2.37-1.71,3.5-2.63A1,1,0,0,0,187.43,118.62Z" transform="translate(-18.08 -14.97)"/>
    <path class="cls-4" d="M155.81,127.32a1,1,0,0,0-1.05-.85l-1.42.08a1,1,0,0,0-1,1l.06,4.55a1,1,0,0,0,1,1c.67,0,1.33-.08,2-.13a1,1,0,0,0,.89-1.12Z" transform="translate(-18.08 -14.97)"/>
    <path class="cls-4" d="M165,130.29,163.74,126a1,1,0,0,0-1.17-.68c-1.14.26-2.29.48-3.46.66a1,1,0,0,0-.83,1.1l.57,4.46a1,1,0,0,0,1.13.86c1.45-.23,2.87-.52,4.28-.86A1,1,0,0,0,165,130.29Z" transform="translate(-18.08 -14.97)"/>
    <path class="cls-4" d="M115.11,112.21c-.83-.78-1.65-1.58-2.43-2.41a.74.74,0,0,0-1,0l-4,3.52a.75.75,0,0,0,0,1.08c1,1,2,2,3.06,3a.75.75,0,0,0,1.08-.07l3.39-4A.73.73,0,0,0,115.11,112.21Z" transform="translate(-18.08 -14.97)"/>
    <path class="cls-4" d="M109.63,106.27q-.75-1-1.47-2a1.5,1.5,0,0,0-2-.41L102.9,106a1.5,1.5,0,0,0-.41,2.13c.63.87,1.28,1.73,2,2.57a1.5,1.5,0,0,0,2.16.16l2.85-2.53A1.51,1.51,0,0,0,109.63,106.27Z" transform="translate(-18.08 -14.97)"/>
  </g>
  <path class="cls-1" d="M226.47,44.7c-.79-.1-25.16-.56-35.54-.3l-1,0h-.28a27.26,27.26,0,0,0-2.93.21,14.5,14.5,0,0,0-4.15,1.7l-.64.39c-.4.24-.79.5-1.18.78l-.07.05c-.48.35-.94.71-1.4,1.09a18.19,18.19,0,0,0-1.63,1.52,16.39,16.39,0,0,0-1.18,1.36c-.23.3-.43.6-.62.89A32.63,32.63,0,0,0,135,46.48l.32,0,.62,0A154.8,154.8,0,0,1,155.3,48a26.4,26.4,0,0,1,11.77,4.79c.11.09,5.63,4.33,7.78,10,2.27,5.92,3.13,11.77,1.37,17.9A21.17,21.17,0,0,1,172,87.5c-2.28,2.24-32.44,12.24-32.82,12.24a47.31,47.31,0,0,1-6,1.55A27.35,27.35,0,0,0,149.55,107c16.36.78,31.24-10.11,34.28-26.2A33.17,33.17,0,0,0,182.73,64s0-.08,0-.11h.44c1,0,2.23,0,3.37,0h2c1.06,0,1.8,0,1.85,0h0a2.51,2.51,0,0,1,.31,1.52c0,6.33,0,12.65,0,19V88.1c0,3.67,0,7.34,0,11,0,.79,0,1.59,0,2.38a3.06,3.06,0,0,0,.06.65,1,1,0,0,0,.44.74,2.26,2.26,0,0,0,1.2.18c1.63-.08,3.25-.24,5.23-.48,6.06-.74,12.18-7.31,12.39-13,0-4.95.07-20.64.38-24.44a1.21,1.21,0,0,1,.83-1c2.62-.81,10.65-3,13.3-7C226.68,53.06,226.46,44.84,226.47,44.7Zm-4,6.38a11,11,0,0,1-5.92,7.59c-2.48,1.31-5.19,1.31-7.87,1.54-2.06.17-2.54.65-2.7,2.66-.06.75,0,1.52,0,2.28,0,7.54,0,15.09,0,22.63,0,5.06-2.59,8.49-7.1,10.48-2.9,1.28-3.9,1.3-4.2-.7a12.09,12.09,0,0,1-.11-1.64c0-.17,0-.34,0-.52,0-1.08,0-2.29,0-3.59,0-11,0-28.68-.07-29.42a2,2,0,0,0-2.09-2.13l-1.4,0-1,0-2.42,0c-.47,0-1,0-1.42,0-1.45,0-6.23,0-7.75,0a21,21,0,0,1,.24-2.84,10,10,0,0,1,1.66-3.82,17.08,17.08,0,0,1,1.41-1.75A9.37,9.37,0,0,1,183,50.6a9.52,9.52,0,0,1,1.42-.82c.25-.11.51-.22.77-.31a12.42,12.42,0,0,1,3.44-.68c.68,0,2-.07,3.7-.09h1.55c7.87-.06,21.56,0,26.78.05C222.74,48.75,222.94,49.06,222.48,51.08Z" transform="translate(-18.08 -14.97)"/>
  <path class="cls-5" d="M221.55,50.91c-1.33,3.92-7.38,7.26-15.41,7.67-.89.05-1.27.24-1.27,1.56,0,8.23.13,17.29.12,25.53a31.86,31.86,0,0,1-.13,3.52A10.3,10.3,0,0,1,196.93,98c-1.35.32-1.64,0-1.63-1.32,0-.79,0-1.57,0-2.36,0-1.71,0-3.42,0-5.14,0-3.52,0-7.05,0-10.57,0-6-.12-12.6-.06-18.55,0-1.25.33-1.3-1.14-1.34-1,0-13.83-.09-13.83-.09s1.48-8.77,13.3-8.69c6.85.05,28,0,28,0A2.06,2.06,0,0,1,221.55,50.91Z" transform="translate(-18.08 -14.97)"/>
  <path class="cls-6" d="M165.52,76.26a2.73,2.73,0,0,1-2.05,2.53l-16.41,3c0-.26-1.6-10.23-2.41-15-1-3.8-1-3.84-5-3.78s-11.95.06-11.95.06,2,16.34,2.65,21.2c.43,3.39,1.8,16.22,1.8,16.22L130,98.71a28.55,28.55,0,0,1-2.14-2.12c-1.11-9.71-4.26-37.47-4.28-38.53h0l.22-.36a.4.4,0,0,1,.22,0c2.59.1,29.51.94,33.12,1.26a16.65,16.65,0,0,1,4,1.35l0,0a8.17,8.17,0,0,1,4,5.42A25.36,25.36,0,0,1,165.7,69,46.24,46.24,0,0,1,165.52,76.26Z" transform="translate(-18.08 -14.97)"/>
  <path class="cls-2" d="M173.14,63.49A18.83,18.83,0,0,0,167,54.68c-.52-.4-1-.78-1.59-1.15-8-5.46-31.25-6.46-31.66-6.22-2.25,1.26-5.58,4.55-7.42,6.79l0,0c-.49.61-1,1.25-1.41,1.9,1.34,0,14.88-.3,24.41.26,6.18.36,10.79,1.55,12.78,2.93a5.75,5.75,0,0,1,1,.78,15,15,0,0,1,3.66,5.89,23.88,23.88,0,0,1,.52,8c-.18,1.11-.41,3.53-1.17,4.53a4.18,4.18,0,0,1-2.35,1.75c-4.06,1.77-17.43,3-17.79,3.18-1-6-2-12-2.94-18-.16-1-.56-1.12-1.67-1.12-3.5,0-7,0-10.44,0-1.43,0-1.65.23-1.51,1.32q2.05,16.43,4,32.85a2,2,0,0,0,.49,1.34,1.22,1.22,0,0,0,.73.28c.31,0,32.29-11.12,34.59-12.41,2.51-1.41,4.83-4.14,5.3-6.3A30.71,30.71,0,0,0,173.14,63.49Z" transform="translate(-18.08 -14.97)"/>
  <path class="cls-7" d="M174.51,81.39c-.47,2.16-2.79,4.89-5.3,6.3-2.3,1.29-34.28,12.41-34.59,12.41a1.22,1.22,0,0,1-.73-.28l12-16.43,1.21-1.64L162.31,61l.74-1,3.9-5.32a18.83,18.83,0,0,1,6.19,8.81A30.71,30.71,0,0,1,174.51,81.39Z" transform="translate(-18.08 -14.97)"/>
  <path class="cls-5" d="M189.71,65.47c0,6.33,0,12.65,0,19a39.59,39.59,0,0,1-38.24,29.34A37.92,37.92,0,0,1,123.57,102c0-2.07,0-4.41,0-6.48,6.48,8.65,16.23,14.27,27.87,14.27A35.57,35.57,0,0,0,187,74.2a26.44,26.44,0,0,0-1.12-8.86S189.71,64.93,189.71,65.47Z" transform="translate(-18.08 -14.97)"/>
  <path class="cls-5" d="M180.3,47.13c-.48.35-1,.71-1.5,1.09a16.9,16.9,0,0,0-1.53,1.52,34.32,34.32,0,0,0-25.83-11.1c-11.64,0-21.31,5.59-27.78,14.24,0-2,.07-6.66.07-6.66a37.37,37.37,0,0,1,27.71-11.6A38.19,38.19,0,0,1,180.3,47.13Z" transform="translate(-18.08 -14.97)"/>
</svg>
