<?xml version="1.0" encoding="UTF-8" standalone="no"?>
<svg
   xmlns:dc="http://purl.org/dc/elements/1.1/"
   xmlns:cc="http://creativecommons.org/ns#"
   xmlns:rdf="http://www.w3.org/1999/02/22-rdf-syntax-ns#"
   xmlns:svg="http://www.w3.org/2000/svg"
   xmlns="http://www.w3.org/2000/svg"
   xmlns:sodipodi="http://sodipodi.sourceforge.net/DTD/sodipodi-0.dtd"
   xmlns:inkscape="http://www.inkscape.org/namespaces/inkscape"
   viewBox="0 0 512 512"
   width="512"
   height="512"
   version="1.1"
   id="svg10"
   sodipodi:docname="customer-support.svg"
   inkscape:version="0.92.5 (2060ec1f9f, 2020-04-08)">
  <metadata
     id="metadata16">
    <rdf:RDF>
      <cc:Work
         rdf:about="">
        <dc:format>image/svg+xml</dc:format>
        <dc:type
           rdf:resource="http://purl.org/dc/dcmitype/StillImage" />
      </cc:Work>
    </rdf:RDF>
  </metadata>
  <defs
     id="defs14" />
  <sodipodi:namedview
     pagecolor="#ffffff"
     bordercolor="#666666"
     borderopacity="1"
     objecttolerance="10"
     gridtolerance="10"
     guidetolerance="10"
     inkscape:pageopacity="0"
     inkscape:pageshadow="2"
     inkscape:window-width="1280"
     inkscape:window-height="776"
     id="namedview12"
     showgrid="false"
     inkscape:zoom="0.4609375"
     inkscape:cx="-112.81356"
     inkscape:cy="256"
     inkscape:window-x="0"
     inkscape:window-y="0"
     inkscape:window-maximized="1"
     inkscape:current-layer="svg10" />
  <g
     id="_06-24hr"
     data-name="06-24hr"
     style="display:inline">
    <g
       id="linear_color"
       data-name="linear color">
      <path
         d="m 486.417,358.366 a 253.547,253.547 0 0 0 0,-204.732 111.282,111.282 0 0 0 17.967,-32.834 c 7.457,-22.37 9.364,-56.018 -23.9,-89.28 C 447.22,-1.742 413.576,0.16 391.205,7.616 a 111.282,111.282 0 0 0 -32.839,17.967 253.547,253.547 0 0 0 -204.732,0 A 111.282,111.282 0 0 0 120.8,7.616 C 98.424,0.16 64.777,-1.747 31.515,31.515 -1.747,64.777 0.159,98.425 7.616,120.8 a 111.282,111.282 0 0 0 17.967,32.839 253.547,253.547 0 0 0 0,204.732 111.282,111.282 0 0 0 -17.967,32.834 c -7.457,22.37 -9.364,56.018 23.9,89.28 38.392,39.921 87.463,33.489 122.119,5.932 a 253.547,253.547 0 0 0 204.732,0 c 34.705,27.565 83.682,33.985 122.119,-5.932 33.263,-33.262 31.356,-66.91 23.9,-89.28 A 111.282,111.282 0 0 0 486.417,358.366 Z M 377.7,448.721 335.767,390.015 a 157.177,157.177 0 0 0 54.252,-54.252 L 448.721,377.7 A 229.8,229.8 0 0 1 377.7,448.721 Z M 63.279,377.7 121.985,335.767 a 157.177,157.177 0 0 0 54.252,54.252 L 134.3,448.721 A 229.8,229.8 0 0 1 63.279,377.7 Z M 134.3,63.279 l 41.933,58.706 a 157.177,157.177 0 0 0 -54.252,54.252 L 63.279,134.3 A 229.8,229.8 0 0 1 134.3,63.279 Z m -84.625,95.763 a 11.886,11.886 0 0 0 1.816,-3.664 l 59.691,42.636 a 155.939,155.939 0 0 0 0,115.972 l -59.67,42.621 a 11.942,11.942 0 0 0 -1.881,-3.743 C 21.022,294.765 21.041,217.125 49.675,159.042 Z M 124,256 c 0,-72.785 59.215,-132 132,-132 72.785,0 132,59.215 132,132 0,72.785 -59.215,132 -132,132 -72.785,0 -132,-59.215 -132,-132 z M 448.721,134.3 390.015,176.233 A 157.177,157.177 0 0 0 335.763,121.981 L 377.7,63.279 a 229.8,229.8 0 0 1 71.021,71.021 z m 13.6,218.654 a 11.886,11.886 0 0 0 -1.816,3.664 l -59.691,-42.636 a 155.939,155.939 0 0 0 0,-115.972 l 59.67,-42.621 a 11.942,11.942 0 0 0 1.881,3.743 c 28.613,58.103 28.594,135.743 -0.04,193.826 z M 399.505,30.151 c 22.931,-7.375 44.469,-1.207 64.01,18.334 19.541,19.541 25.709,41.077 18.334,64.01 a 81.05,81.05 0 0 1 -7.832,16.947 254.652,254.652 0 0 0 -91.459,-91.459 81.023,81.023 0 0 1 16.947,-7.832 z m -46.547,19.524 a 11.875,11.875 0 0 0 3.664,1.816 l -42.636,59.691 a 155.939,155.939 0 0 0 -115.972,0 l -42.621,-59.67 a 11.942,11.942 0 0 0 3.743,-1.881 c 58.1,-28.609 135.738,-28.59 193.822,0.044 z M 30.151,112.5 C 22.776,89.567 28.945,68.031 48.485,48.49 68.025,28.949 89.563,22.776 112.5,30.151 A 81.05,81.05 0 0 1 129.447,37.983 254.652,254.652 0 0 0 37.988,129.442 81.023,81.023 0 0 1 30.151,112.5 Z M 112.5,481.849 C 89.57,489.224 68.031,483.056 48.49,463.515 28.949,443.974 22.781,422.438 30.156,399.505 a 81.05,81.05 0 0 1 7.832,-16.947 254.652,254.652 0 0 0 91.459,91.459 81.023,81.023 0 0 1 -16.947,7.832 z m 46.547,-19.524 a 11.886,11.886 0 0 0 -3.664,-1.816 l 42.636,-59.691 a 155.939,155.939 0 0 0 115.972,0 l 42.621,59.67 a 11.942,11.942 0 0 0 -3.743,1.881 c -58.105,28.609 -135.744,28.59 -193.827,-0.044 z m 304.473,1.19 c -19.541,19.54 -41.078,25.708 -64.01,18.334 a 81.05,81.05 0 0 1 -16.947,-7.832 254.652,254.652 0 0 0 91.459,-91.459 81.023,81.023 0 0 1 7.832,16.947 c 7.37,22.933 1.201,44.469 -18.339,64.01 z"
         id="path2"
         inkscape:connector-curvature="0"
         style="fill:#feac31;fill-opacity:1;opacity:1" />
      <path
         d="m 244,232 a 44,44 0 0 0 -88,0 12,12 0 0 0 24,0 20,20 0 0 1 40,0 c 0,5.962 -3.075,11.919 -8.437,16.344 -13.456,11.1 -50.2,45.434 -51.758,46.89 A 12,12 0 0 0 168,316 h 64 a 12,12 0 0 0 0,-24 h -33.359 c 10.541,-9.664 22.106,-20.119 28.2,-25.145 C 237.745,257.855 244,245.151 244,232 Z"
         id="path4"
         inkscape:connector-curvature="0"
         style="fill:#feac31;fill-opacity:1" />
      <path
         d="m 308,292 v 20 a 12,12 0 0 0 24,0 v -20 h 12 a 12,12 0 0 0 0,-24 h -12 v -68 a 12,12 0 0 0 -21.831,-6.881 l -56,80 A 12,12 0 0 0 264,292 Z m 0,-53.932 V 268 h -20.952 z"
         id="path6"
         inkscape:connector-curvature="0"
         style="fill:#feac31;fill-opacity:1" />
    </g>
  </g>
</svg>
